<svg xmlns="http://www.w3.org/2000/svg" width="48" height="72" viewBox="0 0 12.7 19.05">
  <defs>
    <!-- ring（外周は完全透明） -->
    <radialGradient id="ring" cx="50%" cy="50%" r="50%">
      <stop offset="60%" stop-color="#000" stop-opacity="0"/>
      <stop offset="75%" stop-color="#161616" stop-opacity="0"/>
      <stop offset="85%" stop-color="#fff" stop-opacity="0.5"/>
      <stop offset="95%" stop-color="#1d1d1d" stop-opacity="0"/>
      <stop offset="100%" stop-color="#000" stop-opacity="0"/>
    </radialGradient>

    <!-- core -->
    <radialGradient id="core" cx="50%" cy="50%" r="50%">
      <stop offset="0%" stop-color="#fff" stop-opacity="0.5"/>
      <stop offset="20.178%" stop-color="#fff" stop-opacity="0.5"/>
      <stop offset="35%" stop-color="#e4e4e4" stop-opacity="0"/>
      <stop offset="90%" stop-color="#808080" stop-opacity="0"/>
      <stop offset="100%" stop-color="#000" stop-opacity="0.5"/>
    </radialGradient>

    <!-- orb（定義は1回だけ） -->
    <g id="orb" stroke="none">
      <circle cx="2.38125" cy="2.38125" r="1.5875" fill="url(#ring)"/>
      <circle cx="2.38125" cy="2.38125" r="1.0583333" fill="url(#core)"/>
    </g>
  </defs>

  <!-- base -->
  <path fill="#d3caa8"
    d="m2.38125.264583c-1.172633 0-2.116667.944033-2.116667 2.116667v14.2875c0 1.172633.944034 2.116667 2.116667 2.116667h7.9375c1.172633 0 2.116667-.944034 2.116667-2.116667v-14.2875c0-1.172634-.944034-2.116667-2.116667-2.116667z
       m0 .529167a1.5875 1.5875 0 0 1 1.5875 1.5875 1.5875 1.5875 0 0 1-1.5875 1.5875 1.5875 1.5875 0 0 1-1.5875-1.5875 1.5875 1.5875 0 0 1 1.5875-1.5875z
       m7.9375 0a1.5875 1.5875 0 0 1 1.5875 1.5875 1.5875 1.5875 0 0 1-1.5875 1.5875 1.5875 1.5875 0 0 1-1.5875-1.5875 1.5875 1.5875 0 0 1 1.5875-1.5875z
       m-7.9375 14.2875a1.5875 1.5875 0 0 1 1.5875 1.5875 1.5875 1.5875 0 0 1-1.5875 1.5875 1.5875 1.5875 0 0 1-1.5875-1.5875 1.5875 1.5875 0 0 1 1.5875-1.5875z
       m7.9375 0a1.5875 1.5875 0 0 1 1.5875 1.5875 1.5875 1.5875 0 0 1-1.5875 1.5875 1.5875 1.5875 0 0 1-1.5875-1.5875 1.5875 1.5875 0 0 1 1.5875-1.5875z"/>

  <!-- frame -->
  <g fill="#442a11">
    <path d="M4.2333333 2.38125A1.8520833 1.8520833 0 0 1 2.38125 4.2333333V4.7625A2.3812499 2.3812499 0 0 0 4.7625 2.38125z"/>
    <path d="M2.38125 0A2.3812499 2.3812499 0 0 0 0 2.38125h.52916667A1.8520833 1.8520833 0 0 1 2.38125.52916667h1.0583333c.4397375 0 .79375.35401247.79375.79375003V2.38125H4.7625V1.3229167c0-.43973756.3540125-.79375003.79375-.79375003H7.14375c.439737 0 .79375.35401245.79375.79375003V2.38125h.5291667V1.3229167c0-.43973758.354012-.79375003.79375-.79375003H10.31875A1.8520833 1.8520833 0 0 1 12.170833 2.38125H12.7A2.3812499 2.3812499 0 0 0 10.31875 0z"/>
    <path d="M0 9.525h.52916667V6.8037191C.52916667 5.6729656.88317914 4.7625 1.3229167 4.7625H2.38125V4.2333333H1.3229167c-.43973756 0-.79375003-.3540125-.79375003-.79375V2.38125H0z"/>
    <path d="M10.31875 4.7625V4.2333333A1.8520833 1.8520833 0 0 1 8.4666667 2.38125H7.9375a2.3812499 2.3812499 0 0 0 2.38125 2.38125z"/>
    <path d="M12.7 2.38125h-.529167v1.0583333c0 .439737-.354012.79375-.79375.79375H10.31875V4.7625h1.058333c.439738 0 .79375.9104651.79375 2.0412191V9.525H12.7z"/>
    <path d="M2.38125 14.2875v.529167A1.8520833 1.8520833 0 0 1 4.2333333 16.66875H4.7625A2.3812499 2.3812499 0 0 0 2.38125 14.2875z"/>
    <path d="M2.38125 19.05v-.529167A1.8520833 1.8520833 0 0 1 .52916667 16.66875H0A2.3812499 2.3812499 0 0 0 2.38125 19.05z"/>
    <path d="M6.0854167 19.05v-.529167H5.55625c-.439738 0-.79375-.354012-.79375-.79375V16.66875H4.2333333v1.058333c0 .439738-.354012.79375-.79375.79375H2.38125V19.05z"/>
    <path d="M0 16.66875h.52916667v-1.058333c0-.439738.35401205-.79375.79375003-.79375H2.38125V14.2875H1.3229167c-.43973798 0-.79375003-.910466-.79375003-2.041219V9.525H0z"/>
    <path d="M7.9375 16.66875H8.4666667A1.8520833 1.8520833 0 0 1 10.31875 14.816667V14.2875A2.3812499 2.3812499 0 0 0 7.9375 16.66875z"/>
    <path d="M12.7 16.66875h-.529167A1.8520833 1.8520833 0 0 1 10.31875 18.520833V19.05A2.3812499 2.3812499 0 0 0 12.7 16.66875z"/>
    <path d="M10.31875 19.05v-.529167H9.2604167c-.439738 0-.79375-.354012-.79375-.79375V16.66875H7.9375v1.058333c0 .439738-.354013.79375-.79375.79375H6.6145833V19.05z"/>
    <path d="M6.6145833 19.05v-.529167H6.0854167V19.05z"/>
    <path d="M12.7 9.525h-.529167v2.721281c0 1.130754-.354012 2.041219-.79375 2.041219H10.31875v.529167h1.058333c.439738 0 .79375.354013.79375.79375V16.66875H12.7z"/>
  </g>

  <!-- orbs（配置は4つだけ。左上も0,0を明示） -->
  <use href="#orb" x="0" y="0"/>
  <use href="#orb" x="7.9375" y="0"/>
  <use href="#orb" x="0" y="14.2875"/>
  <use href="#orb" x="7.9375" y="14.2875"/>
</svg>